<?xml version="1.0" encoding="UTF-8"?>
<!-- Generator: Adobe Illustrator 12.0.1, SVG Export Plug-In  -->
<!DOCTYPE svg PUBLIC "-//W3C//DTD SVG 1.1//EN" "http://www.w3.org/Graphics/SVG/1.1/DTD/svg11.dtd" [
	<!ENTITY ns_flows "http://ns.adobe.com/Flows/1.0/">
	<!ENTITY ns_svg "http://www.w3.org/2000/svg">
	<!ENTITY ns_xlink "http://www.w3.org/1999/xlink">
]>
<svg version="1.1" xmlns="http://www.w3.org/2000/svg" xmlns:xlink="http://www.w3.org/1999/xlink" xmlns:a="http://ns.adobe.com/AdobeSVGViewerExtensions/3.0/" width="59" height="59" viewBox="-0.408 -0.912 59 59" enable-background="new -0.408 -0.912 59 59" xml:space="preserve">
<defs>
</defs>
<path fill="#818384" d="M52.43,25.545c0,12.964-10.512,23.474-23.478,23.474c-12.964,0-23.474-10.51-23.474-23.474  c0-12.968,10.51-23.479,23.474-23.479C41.918,2.066,52.43,12.577,52.43,25.545"/>
<path fill="#055AA7" d="M57.859,28.931c0,15.98-12.949,28.931-28.925,28.931C12.952,57.861,0,44.911,0,28.931  C0,12.955,12.952,0,28.935,0C44.91,0,57.859,12.955,57.859,28.931"/>
<path fill="#FFFFFF" d="M53.685,28.931c0,13.668-11.084,24.75-24.75,24.75c-13.67,0-24.75-11.082-24.75-24.75  s11.08-24.75,24.75-24.75C42.601,4.181,53.685,15.263,53.685,28.931"/>
<path fill="#FFFFFF" d="M4.743,28.845c0-13.32,10.794-24.118,24.116-24.118c13.318,0,24.121,10.798,24.121,24.118  S42.178,52.963,28.859,52.963C15.537,52.963,4.743,42.165,4.743,28.845"/>
<path fill="#184B9C" d="M38.117,43.974h2.041V15.898c-0.009-1.126-0.92-2.037-2.045-2.037v0.005h-2.037v16.448  c0,1.13-0.911,2.045-2.048,2.045c-0.693,0-1.306-0.353-1.671-0.881L21.34,14.695l-0.009,0.004c-0.373-0.511-0.978-0.847-1.658-0.847  v0.005h-2.039v28.041c0,0.009,0,0.018,0,0.026c0,1.13,0.911,2.045,2.043,2.045v-0.004h2.041v-2.617h-0.004V27.491h0.004  c0-1.13,0.916-2.045,2.041-2.045c0.709,0,1.326,0.36,1.695,0.902l10.854,16.543c0.344,0.645,1.021,1.082,1.805,1.082"/>
<polyline fill="#ED3426" points="47.987,7.176 49.268,10.772 52.712,9.135 51.074,12.581 54.673,13.857 51.074,15.138   52.712,18.584 49.268,16.946 47.987,20.543 46.707,16.946 43.261,18.584 44.902,15.138 41.304,13.857 44.902,12.581 43.261,9.135   46.707,10.772 47.987,7.176 "/>
<polygon fill="none" stroke="#ED3426" stroke-width="0.275" stroke-linecap="round" stroke-linejoin="round" points="47.987,7.176   49.268,10.772 52.712,9.135 51.074,12.581 54.673,13.857 51.074,15.138 52.712,18.584 49.268,16.946 47.987,20.543 46.707,16.946   43.261,18.584 44.902,15.138 41.304,13.857 44.902,12.581 43.261,9.135 46.707,10.772 "/>
</svg>